<?xml version="1.0" encoding="UTF-8"?>
<!DOCTYPE svg PUBLIC "-//W3C//DTD SVG 1.1//EN" "http://www.w3.org/Graphics/SVG/1.1/DTD/svg11.dtd">
<!-- Creator: CorelDRAW -->
<svg xmlns="http://www.w3.org/2000/svg" xml:space="preserve" width="297mm" height="210mm" style="shape-rendering:geometricPrecision; text-rendering:geometricPrecision; image-rendering:optimizeQuality; fill-rule:evenodd; clip-rule:evenodd"
viewBox="0 0 297 210"
 xmlns:xlink="http://www.w3.org/1999/xlink"
 version="1.1">
 <defs>
  <style type="text/css">
   <![CDATA[
    .fil3 {fill:#0071BC}
    .fil1 {fill:#0075A8}
    .fil2 {fill:#0D5E8C}
    .fil4 {fill:#29373C}
    .fil0 {fill:#3D3D3D}
    .fil6 {fill:#CCD1D3}
    .fil9 {fill:#EC008C}
    .fil8 {fill:#F1C40F}
    .fil5 {fill:#F7F9F9}
    .fil10 {fill:white;fill-rule:nonzero}
    .fil7 {fill:#0071BC;fill-opacity:0.101961}
   ]]>
  </style>
 </defs>
 <g id="Layer_x0020_1">
  <metadata id="CorelCorpID_0Corel-Layer"/>
  <g id="_246973552">
   <g>
    <path id="_336639088" class="fil0" d="M124.55 83.3963c0.1492,0 0.2611,0.0373 0.4104,0.0746 0.1492,0.0373 0.2611,0.1492 0.373,0.2611l2.2386 2.3505c-0.9701,1.2685 -2.2012,2.2385 -3.6936,2.91 -1.4923,0.6342 -3.2085,0.9701 -5.2231,0.9701 -1.8655,0 -3.5071,-0.2985 -4.962,-0.9327 -1.4551,-0.6342 -2.6863,-1.4924 -3.7309,-2.6116 -1.0074,-1.1193 -1.7908,-2.4251 -2.3504,-3.9548 -0.5597,-1.5296 -0.8208,-3.1712 -0.8208,-4.962 0,-1.8281 0.2985,-3.4697 0.8954,-4.9994 0.597,-1.5296 1.4178,-2.8355 2.4997,-3.9174 1.0819,-1.1193 2.3504,-1.9774 3.8428,-2.5742 1.4923,-0.597 3.1339,-0.9327 4.9247,-0.9327 0.8955,0 1.7909,0.0745 2.5743,0.2238 0.8208,0.1492 1.567,0.373 2.2759,0.6715 0.7088,0.2985 1.343,0.6342 1.94,1.0446 0.597,0.4104 1.1193,0.8208 1.567,1.3059l-1.9027 2.537c-0.1119,0.1492 -0.2612,0.2985 -0.4477,0.4104 -0.1493,0.1119 -0.4104,0.1865 -0.7089,0.1865 -0.1866,0 -0.3731,-0.0373 -0.5596,-0.1492 -0.1866,-0.0746 -0.3731,-0.1866 -0.5597,-0.3358 -0.1866,-0.1119 -0.4104,-0.2612 -0.6715,-0.4104 -0.2238,-0.1493 -0.5223,-0.2985 -0.8581,-0.4104 -0.3358,-0.1119 -0.7089,-0.2238 -1.1566,-0.3358 -0.4478,-0.0746 -0.9701,-0.1493 -1.5297,-0.1493 -0.9327,0 -1.7908,0.1866 -2.5742,0.5223 -0.7835,0.3359 -1.4551,0.8582 -2.0148,1.4924 -0.5596,0.6715 -1.0073,1.4923 -1.3058,2.4251 -0.2985,0.97 -0.4477,2.0519 -0.4477,3.2831 0,1.2312 0.1866,2.3504 0.5223,3.3205 0.3358,0.97 0.7834,1.7908 1.3804,2.4623 0.597,0.6715 1.2685,1.1566 2.052,1.5297 0.7834,0.3358 1.6042,0.5223 2.4996,0.5223 0.5223,0 0.9701,-0.0374 1.4178,-0.0746 0.4104,-0.0374 0.8208,-0.1493 1.1938,-0.2612 0.3731,-0.1119 0.7089,-0.2611 1.0446,-0.485 0.3358,-0.1866 0.6342,-0.4478 0.97,-0.7462 0.1493,-0.1119 0.2612,-0.1866 0.4478,-0.2612 0.1492,0.0375 0.2984,0.0002 0.4477,0.0002z"/>
    <path id="_336639328" class="fil0" d="M156.71 77.5388c0,1.7535 -0.2985,3.3952 -0.8955,4.9248 -0.5969,1.5297 -1.455,2.8355 -2.5742,3.9548 -1.1192,1.1192 -2.4251,1.9773 -3.992,2.6116 -1.5669,0.6342 -3.2831,0.97 -5.1486,0.97 -1.9027,0 -3.619,-0.3358 -5.1859,-0.97 -1.567,-0.6343 -2.8728,-1.4924 -3.992,-2.6116 -1.1193,-1.1193 -1.9774,-2.4251 -2.5743,-3.9548 -0.597,-1.5296 -0.8954,-3.1339 -0.8954,-4.9248 0,-1.7534 0.2984,-3.3951 0.8954,-4.9248 0.597,-1.5296 1.4551,-2.8355 2.5743,-3.9547 1.1192,-1.1193 2.4251,-1.9774 3.992,-2.6116 1.5669,-0.6342 3.2831,-0.97 5.1859,-0.97 1.9027,0 3.6189,0.3358 5.1486,0.97 1.567,0.6342 2.8727,1.5297 3.992,2.6116 1.1193,1.1192 1.94,2.4251 2.5742,3.9547 0.597,1.5298 0.8955,3.1714 0.8955,4.9248zm-5.7828 0c0,-1.1938 -0.1493,-2.2758 -0.4851,-3.2459 -0.2985,-0.97 -0.7462,-1.7908 -1.3431,-2.4623 -0.5969,-0.6715 -1.3058,-1.1938 -2.1266,-1.5297 -0.8581,-0.373 -1.7908,-0.5223 -2.8727,-0.5223 -1.0819,0 -2.052,0.1866 -2.9101,0.5223 -0.8581,0.3731 -1.567,0.8582 -2.1638,1.5297 -0.597,0.6715 -1.0446,1.4923 -1.3431,2.4623 -0.2985,0.9701 -0.4851,2.052 -0.4851,3.2459 0,1.2312 0.1493,2.3131 0.4851,3.2459 0.2985,0.97 0.7462,1.7908 1.3431,2.4624 0.5969,0.6715 1.3058,1.1938 2.1638,1.5296 0.8581,0.3358 1.8282,0.5223 2.9101,0.5223 1.0819,0 2.0519,-0.1866 2.8727,-0.5223 0.8581,-0.3358 1.567,-0.8581 2.1266,-1.5296 0.597,-0.6716 1.0446,-1.4924 1.3431,-2.4624 0.3358,-0.9327 0.4851,-2.0519 0.4851,-3.2459z"/>
    <path id="_336639472" class="fil0" d="M184.58 65.3762l0 24.3253 -2.9473 0c-0.4477,0 -0.7834,-0.0746 -1.0819,-0.2238 -0.2985,-0.1493 -0.597,-0.3731 -0.8581,-0.7089l-11.4538 -14.5131c0.0373,0.4477 0.0745,0.8581 0.0745,1.2685 0,0.4104 0.0374,0.7835 0.0374,1.1566l0 13.0207 -4.9621 0 0 -24.3253 2.9847 0c0.2611,0 0.4477,0 0.6342,0.0374 0.1492,0.0373 0.3358,0.0746 0.4477,0.1119 0.1493,0.0746 0.2612,0.1492 0.3731,0.2611 0.1119,0.1119 0.2611,0.2612 0.4104,0.4478l11.5657 14.625c-0.0374,-0.4851 -0.1119,-0.9327 -0.1119,-1.3431 -0.0374,-0.4477 -0.0374,-0.8581 -0.0374,-1.2312l0.0001 -12.9089 4.9247 0z"/>
    <path id="_336639592" class="fil0" d="M214.464 65.3762l-9.7375 24.3253 -5.1113 0 -9.7375 -24.3253 4.5143 0c0.4851,0 0.8955,0.112 1.1939,0.3359 0.2984,0.2239 0.5223,0.5223 0.6715,0.8581l4.7009 13.0207c0.2238,0.5596 0.4477,1.1938 0.6342,1.8654 0.2238,0.6716 0.4104,1.3805 0.597,2.1267 0.1492,-0.7462 0.3358,-1.4551 0.5223,-2.1267 0.1865,-0.6715 0.4104,-1.3058 0.6342,-1.8654l4.6635 -13.0207c0.1119,-0.2985 0.3358,-0.597 0.6716,-0.8581 0.3358,-0.2612 0.7088,-0.3731 1.1938,-0.3731l4.5891 -0.0001 0 0.0373z"/>
    <path id="_336639736" class="fil0" d="M242.707 77.5388c0,1.7535 -0.2985,3.3952 -0.8954,4.9248 -0.597,1.5297 -1.4551,2.8355 -2.5743,3.9548 -1.1192,1.1192 -2.4251,1.9773 -3.992,2.6116 -1.5669,0.6342 -3.2831,0.97 -5.1486,0.97 -1.9027,0 -3.6189,-0.3358 -5.1859,-0.97 -1.567,-0.6343 -2.8728,-1.4924 -3.992,-2.6116 -1.1193,-1.1193 -1.9774,-2.4251 -2.5743,-3.9548 -0.5969,-1.5296 -0.8954,-3.1339 -0.8954,-4.9248 0,-1.7534 0.2985,-3.3951 0.8954,-4.9248 0.597,-1.5296 1.4551,-2.8355 2.5743,-3.9547 1.1192,-1.1193 2.4251,-1.9774 3.992,-2.6116 1.567,-0.6342 3.2831,-0.97 5.1859,-0.97 1.9027,0 3.619,0.3358 5.1486,0.97 1.567,0.6342 2.8728,1.5297 3.992,2.6116 1.1193,1.1192 1.9401,2.4251 2.5743,3.9547 0.5969,1.5298 0.8954,3.1714 0.8954,4.9248zm-5.7828 0c0,-1.1938 -0.1492,-2.2758 -0.485,-3.2459 -0.2985,-0.97 -0.7462,-1.7908 -1.3431,-2.4623 -0.597,-0.6715 -1.3059,-1.1938 -2.1266,-1.5297 -0.8582,-0.373 -1.7909,-0.5223 -2.8728,-0.5223 -1.0819,0 -2.0519,0.1866 -2.9101,0.5223 -0.8581,0.3731 -1.5669,0.8582 -2.1638,1.5297 -0.597,0.6715 -1.0446,1.4923 -1.3431,2.4623 -0.2985,0.9701 -0.4851,2.052 -0.4851,3.2459 0,1.2312 0.1493,2.3131 0.4851,3.2459 0.2985,0.97 0.7462,1.7908 1.3431,2.4624 0.597,0.6715 1.3058,1.1938 2.1638,1.5296 0.8582,0.3358 1.8282,0.5223 2.9101,0.5223 1.0819,0 2.052,-0.1866 2.8728,-0.5223 0.8581,-0.3358 1.5669,-0.8581 2.1266,-1.5296 0.5969,-0.6716 1.0446,-1.4924 1.3431,-2.4624 0.3358,-0.9327 0.485,-2.0519 0.485,-3.2459z"/>
    <path id="_336639880" class="fil0" d="M259.496 80.4489l0 9.2525 -5.6336 0.0001 0 -9.2526 -8.8048 -15.0727 4.9621 0c0.485,0 0.8581,0.112 1.1566,0.3359 0.2985,0.2238 0.5223,0.5223 0.7088,0.8581l3.4324 7.0886c0.2985,0.5597 0.5596,1.082 0.7835,1.567 0.2238,0.4851 0.4477,0.97 0.6342,1.4178 0.1492,-0.4851 0.373,-0.9701 0.5596,-1.4551 0.2238,-0.4851 0.4851,-1.0074 0.7462,-1.5297l3.3951 -7.0886c0.0746,-0.1493 0.1866,-0.2985 0.2985,-0.4477 0.1119,-0.1493 0.2238,-0.2612 0.4104,-0.4104 0.1492,-0.1119 0.3358,-0.2239 0.5223,-0.2985 0.1866,-0.0746 0.4104,-0.1119 0.6342,-0.1119l4.9994 -0.0001 -8.8049 15.1473z"/>
    <path id="_336637936" class="fil1" d="M129.4 93.2085l0 24.3253 -2.9473 0c-0.4477,0 -0.7835,-0.0746 -1.0819,-0.2238 -0.2985,-0.1493 -0.597,-0.3731 -0.8582,-0.7089l-11.4537 -14.5131c0.0373,0.4477 0.0745,0.8581 0.0745,1.2685 0,0.4104 0.0374,0.7834 0.0374,1.1566l0 13.0207 -4.9621 0 0 -24.3253 2.9847 0c0.2611,0 0.4477,0 0.6342,0.0374 0.1492,0.0373 0.3358,0.0745 0.4477,0.1119 0.1119,0.0373 0.2612,0.1492 0.3731,0.2611 0.1119,0.1119 0.2611,0.2612 0.4104,0.4477l11.5657 14.6251c-0.0374,-0.4851 -0.1119,-0.9327 -0.1119,-1.3431 -0.0374,-0.4477 -0.0374,-0.8581 -0.0374,-1.2312l0 -12.8714 4.9248 -0.0002 0 -0.0373z"/>
    <polygon id="_336640240" class="fil1" points="143.13,97.5363 143.13,103.692 151.45,103.692 151.45,108.057 143.13,108.057 143.13,117.534 137.459,117.534 137.459,93.2085 153.129,93.2085 153.129,97.5363 "/>
    <path id="_336640120" class="fil1" d="M173.126 98.1332c-0.1492,0.2612 -0.3358,0.4851 -0.5223,0.597 -0.1866,0.1492 -0.4104,0.1866 -0.7089,0.1866 -0.2611,0 -0.5223,-0.0746 -0.8207,-0.2239 -0.2985,-0.1492 -0.6343,-0.3358 -1.0074,-0.5596 -0.3731,-0.1866 -0.7835,-0.373 -1.2685,-0.5596 -0.4851,-0.1493 -1.0074,-0.2238 -1.6416,-0.2238 -1.0446,0 -1.8281,0.2238 -2.3504,0.6715 -0.5223,0.4477 -0.7835,1.0446 -0.7835,1.8281 0,0.4851 0.1493,0.8955 0.4851,1.2312 0.2985,0.3358 0.7089,0.597 1.2312,0.8208 0.5223,0.2238 1.0819,0.4477 1.7534,0.6342 0.6342,0.1866 1.3059,0.4104 1.9774,0.6342 0.6716,0.2238 1.3431,0.5223 1.9774,0.8581 0.6342,0.3358 1.2312,0.7462 1.7535,1.2312 0.5223,0.4851 0.9327,1.1193 1.2311,1.8281 0.2985,0.7089 0.4851,1.567 0.4851,2.6116 0,1.1193 -0.1866,2.1639 -0.597,3.1712 -0.373,0.9701 -0.97,1.8282 -1.6789,2.5743 -0.7462,0.7462 -1.6415,1.3058 -2.7235,1.7162 -1.0819,0.4104 -2.3131,0.6342 -3.6935,0.6342 -0.7462,0 -1.5296,-0.0745 -2.3131,-0.2238 -0.7834,-0.1492 -1.5296,-0.373 -2.2758,-0.6715 -0.7462,-0.2985 -1.4178,-0.6342 -2.052,-1.0074 -0.6342,-0.373 -1.1938,-0.8208 -1.6789,-1.3058l1.6789 -2.6489c0.1492,-0.1866 0.2985,-0.3359 0.5223,-0.4851 0.2238,-0.1119 0.4477,-0.1866 0.7089,-0.1866 0.3358,0 0.6715,0.1119 1.0073,0.2985 0.3359,0.2238 0.7089,0.4477 1.1566,0.7089 0.4104,0.2611 0.9327,0.485 1.4924,0.7089 0.5596,0.2238 1.2311,0.2984 1.9773,0.2984 1.0074,0 1.8282,-0.2238 2.3878,-0.6715 0.5596,-0.4477 0.8581,-1.1566 0.8581,-2.1266 0,-0.5596 -0.1492,-1.0446 -0.485,-1.3804 -0.2985,-0.3731 -0.7089,-0.6342 -1.2312,-0.8955 -0.5223,-0.2238 -1.0819,-0.4477 -1.7162,-0.6342 -0.6342,-0.1866 -1.3059,-0.373 -1.9774,-0.597 -0.6716,-0.2238 -1.3431,-0.485 -1.9774,-0.7834 -0.6342,-0.2985 -1.2312,-0.7462 -1.7162,-1.2685 -0.5223,-0.5223 -0.9327,-1.1566 -1.2312,-1.9401 -0.2985,-0.7834 -0.4851,-1.7162 -0.4851,-2.8727 0,-0.8954 0.1866,-1.7908 0.5597,-2.6862 0.373,-0.8582 0.8954,-1.6416 1.6042,-2.3131 0.7089,-0.6716 1.6042,-1.2312 2.6116,-1.6416 1.0073,-0.4104 2.2385,-0.597 3.5444,-0.597 0.7462,0 1.455,0.0746 2.1638,0.1866 0.7089,0.1119 1.3804,0.2985 2.0147,0.5223 0.6342,0.2238 1.2312,0.4851 1.7908,0.8208 0.5597,0.3358 1.0446,0.6715 1.4924,1.0819l-1.5297 2.649z"/>
   </g>
   <g>
    <g>
     <path id="_337006712" class="fil2" d="M102.501 76.5316l-2.7235 -16.304c-0.8581,-5.2231 -3.0966,-9.5137 -4.7382,-9.5137 -1.6042,0 -3.1339,4.3278 -3.1339,9.6257l0 4.2531c0,5.2978 -3.9174,9.2898 -9.2153,9.2898l-4.2532 0.0001c-0.2985,0 -0.7089,0.3731 -1.6789,0.3731l0 11.7149c0.97,0 1.3804,0.1493 1.6789,0.1493l16.0054 0c5.3352,0 8.9541,-4.3652 8.0587,-9.5883z"/>
    </g>
    <g>
     <path id="_337007024" class="fil2" d="M8.1099 76.4942l2.7235 -16.2666c0.8581,-5.2231 3.1339,-9.5137 4.7382,-9.5137 1.6043,0 3.1339,4.3278 3.1339,9.6257l0 4.2531c0,5.2978 3.9174,9.4391 9.2152,9.4391l4.2533 0.0001c0.2985,0 0.7089,0.1866 1.0819,0.2238l0 11.7149c-0.373,0 -0.7834,0.0374 -1.0819,0.0374l-16.0054 -0.0001c-5.2979,-0.0373 -8.9168,-4.2905 -8.0587,-9.5137z"/>
    </g>
    <path id="_337007120" class="fil3" d="M77.6533 128.129c0,2.2758 -1.8282,4.1039 -4.104,4.1039l-37.3086 0.0001c-2.2759,0 -4.104,-1.8282 -4.104,-4.1039l0 -61.5593c0,-2.2759 1.8282,-4.1039 4.104,-4.1039l37.3086 -0.0001c2.2758,0 4.1039,1.8281 4.1039,4.1039l0.0001 61.5593z"/>
    <g>
     <path id="_337007264" class="fil4" d="M34.0394 85.8586c9.7749,-5.932 24.1386,-4.7755 31.8242,-3.5816 7.0887,1.1193 11.7896,3.6936 15.5204,7.7229l0.0001 -10.5583c0,-12.7222 -2.7235,-23.0194 -26.116,-23.0194 -23.0194,0 -26.1161,10.2972 -26.1161,23.0194l0 10.633c1.1193,-1.6789 3.022,-3.0967 4.8874,-4.216z"/>
    </g>
    <path id="_337007240" class="fil5" d="M56.1634 53.9971c-0.485,-0.1492 -1.1938,-0.1492 -1.6789,0 -16.8635,4.8501 -22.3478,2.2012 -22.3478,25.4072l0 7.6483c0,-0.1866 0.5596,-0.4104 0.8581,-0.597l-0.4104 0.597c6.1932,-4.5517 15.2965,-5.559 22.6463,-5.7456 7.3498,0.1866 16.4904,1.1939 22.6464,5.7456l-0.597 -0.597c0.2985,0.1866 0.6716,0.3731 0.6716,0.597l0 -7.611c0.0746,-23.206 -4.9247,-20.5944 -21.7883,-25.4445z"/>
    <path id="_337007792" class="fil6" d="M76.9817 84.1798l-0.8954 0 0 -0.6342 0.8954 -0.0001 0 0.6343zm0 -1.4924l-0.8954 0 0 -1.3431 0.8954 0 0 1.3431zm0 -2.2385l-0.8954 0 0 -1.3431 0.8954 0 0 1.3431zm-0.8954 -2.2012c0,-0.4477 0,-0.8954 0,-1.3431l0.8954 0c0,0.4477 0,0.8955 0,1.3431l-0.8954 0zm0 -2.2385c0,-0.4478 -0.0374,-0.8955 -0.0374,-1.3431l0.8955 -0.0373c0,0.4477 0.0373,0.8954 0.0373,1.343l-0.8954 0.0374zm-0.0746 -2.2012c-0.0373,-0.4477 -0.0373,-0.8955 -0.0746,-1.3059l0.8955 -0.0745c0.0373,0.4477 0.0745,0.8954 0.0745,1.343l-0.8954 0.0374zm-0.1492 -2.2012c-0.0374,-0.4477 -0.0746,-0.8955 -0.1493,-1.3059l0.8955 -0.1119c0.0373,0.4478 0.1119,0.8955 0.1492,1.3431l-0.8954 0.0747zm-0.2613 -2.2012c-0.0746,-0.4477 -0.1492,-0.8581 -0.2238,-1.3059l0.8581 -0.1492c0.0746,0.4477 0.1493,0.8954 0.2238,1.3431l-0.8581 0.112zm-0.373 -2.164c-0.112,-0.4477 -0.1866,-0.8581 -0.3359,-1.2685l0.8582 -0.2238c0.1119,0.4104 0.2238,0.8581 0.3358,1.3058l-0.8581 0.1865zm-0.5597 -2.0893c-0.1492,-0.4104 -0.2985,-0.8207 -0.4477,-1.2311l0.8208 -0.3358c0.1866,0.4103 0.3358,0.8207 0.485,1.2685l-0.8581 0.2984zm-0.8208 -2.0146c-0.1865,-0.4104 -0.4103,-0.7834 -0.6342,-1.1192l0.7462 -0.4851c0.2239,0.3731 0.4478,0.7834 0.6716,1.1938l-0.7836 0.4105zm-1.0819 -1.8281c-0.2611,-0.3358 -0.5223,-0.6716 -0.8208,-1.0074l0.6716 -0.5969c0.2985,0.3358 0.5969,0.7088 0.8954,1.0819l-0.7462 0.5224zm-1.4177 -1.6043c-0.2985,-0.2984 -0.6342,-0.5596 -1.0074,-0.7834l0.5223 -0.7462c0.3731,0.2611 0.7462,0.5596 1.0819,0.8581l-0.5968 0.6715zm-1.7163 -1.2311c-0.373,-0.2238 -0.7462,-0.4104 -1.1566,-0.5597l0.3359 -0.8207c0.4477,0.1865 0.8581,0.373 1.2311,0.5969l-0.4104 0.7835zm-1.94 -0.8955c-0.4104,-0.1492 -0.8208,-0.2611 -1.2312,-0.3358l0.1866 -0.8581c0.4477,0.1119 0.8954,0.2238 1.3431,0.3731l-0.2985 0.8208z"/>
    <path id="_337008008" class="fil6" d="M34.6737 84.1798l-0.8955 0 0 -0.6342 0.8955 -0.0001 0 0.6343zm0 -1.4924l-0.8955 0 0 -1.3431 0.8955 0 0 1.3431zm0 -2.2385l-0.8955 0 0 -1.3431 0.8955 0 0 1.3431zm0 -2.2012l-0.8955 0c0,-0.4477 0,-0.8954 0,-1.3431l0.8955 0c0,0.4477 0,0.8954 0,1.3431zm0.0373 -2.2385l-0.8955 0c0,-0.4478 0.0374,-0.8955 0.0374,-1.3431l0.8954 0.0373c-0.0373,0.4104 -0.0373,0.8581 -0.0373,1.3058zm0.0746 -2.2012l-0.8955 -0.0374c0.0374,-0.4477 0.0374,-0.8954 0.0746,-1.343l0.8954 0.0745c-0.0372,0.4105 -0.0745,0.8582 -0.0745,1.3059zm0.1119 -2.2012l-0.8955 -0.0746c0.0374,-0.4477 0.0746,-0.8954 0.1493,-1.3431l0.8954 0.1119c-0.0373,0.4103 -0.1119,0.8581 -0.1492,1.3058zm0.2611 -2.2012l-0.8954 -0.1119c0.0746,-0.4478 0.1492,-0.8955 0.2238,-1.3431l0.8581 0.1492c-0.0372,0.4477 -0.1118,0.8581 -0.1865,1.3058zm0.3732 -2.164l-0.8581 -0.1865c0.1119,-0.4478 0.2238,-0.8955 0.3358,-1.3059l0.8581 0.2238c-0.112,0.4106 -0.2239,0.8582 -0.3358,1.2686zm0.5969 -2.0893l-0.8582 -0.2611c0.1493,-0.4477 0.2985,-0.8581 0.4851,-1.2685l0.8208 0.2985c-0.1493,0.4104 -0.2985,0.8207 -0.4477,1.2311zm0.7835 -2.0146l-0.7835 -0.373c0.1866,-0.4104 0.4104,-0.8208 0.6716,-1.1939l0.7462 0.4851c-0.2239,0.2984 -0.4105,0.6714 -0.6343,1.0818zm1.1193 -1.8281l-0.7089 -0.5223c0.2611,-0.3731 0.5596,-0.7462 0.8954,-1.082l0.6716 0.597c-0.3358,0.2984 -0.597,0.6342 -0.8581,1.0073zm1.4177 -1.6043l-0.597 -0.6715c0.3359,-0.2985 0.7089,-0.597 1.082,-0.8581l0.5223 0.7462c-0.3731,0.2238 -0.7089,0.485 -1.0073,0.7834zm1.7161 -1.2311l-0.4477 -0.7835c0.4104,-0.2238 0.8208,-0.4477 1.2312,-0.5969l0.3358 0.8207c-0.3731,0.1492 -0.7834,0.3358 -1.1193,0.5597zm1.9401 -0.8955l-0.2985 -0.8581c0.4104,-0.1492 0.8581,-0.2611 1.3431,-0.373l0.1866 0.8581c-0.4104,0.1492 -0.8581,0.2611 -1.2312,0.373z"/>
    <path id="_337008224" class="fil7" d="M35.9421 85.4483c0,0 41.7111,0.1119 41.7111,41.5991l0 -41.2633c0,0 -19.5124,-9.1033 -41.7111,-0.3358z"/>
    <path id="_337008320" class="fil8" d="M32.0621 119.548c-0.1866,0 -0.3731,-0.0746 -0.5223,-0.2238 -0.2985,-0.2985 -0.2985,-0.7462 0,-1.0446 5.3724,-5.4471 12.2372,-6.6036 17.05,-6.6036 0.4104,0 0.7462,0.3358 0.7462,0.7462 0,0.4104 -0.3358,0.7462 -0.7462,0.7462 -4.5144,0 -10.9687,1.0819 -15.9681,6.156 -0.1866,0.149 -0.3731,0.2236 -0.5596,0.2236z"/>
    <path id="_337008632" class="fil4" d="M84.3315 89.8881c-3.6563,-4.5144 -9.4764,-7.4245 -17.3858,-8.6929 -8.3945,-1.3058 -24.1015,-2.537 -34.8836,3.992 -1.9401,1.1566 -3.6935,2.7235 -5.3724,4.7382 -0.3731,0.4477 -0.3731,1.0446 0,1.4923 0.2238,0.2612 0.5596,0.4104 0.8954,0.4104 0.1866,0 0.4104,-0.0373 0.597,-0.1492 0.0745,-0.0374 6.3052,-3.619 16.1173,-5.3724 9.066,-1.6416 23.0941,-2.0148 38.6518,5.3724 0.485,0.2238 1.0819,0.1119 1.4177,-0.3358 0.2983,-0.4478 0.2983,-1.0446 -0.0374,-1.455z"/>
    <g>
     <g>
      <path id="_337008944" class="fil8" d="M31.8755 120.593c-0.1492,0.2985 -1.1566,1.2312 -1.3058,1.3431l0 -0.0374c-0.0374,-0.2238 -0.1493,-1.6042 0,-1.94 0.1492,-0.3358 0.5969,-0.5223 0.9327,-0.3358 0.3731,0.2239 0.5223,0.6343 0.3731,0.9701zm-2.1266 0.1865c-0.0374,0 -0.0374,0 -0.0746,0l-0.8581 -1.082c0.2985,-0.1865 0.597,-0.2984 0.7089,-0.3358 0.4104,-0.0373 0.7462,0.2238 0.7834,0.6342 0.0747,0.4105 -0.1865,0.7463 -0.5596,0.7836z"/>
     </g>
     <g>
      <path id="_337009304" class="fil8" d="M27.9954 122.235c0.3731,-0.0746 0.6342,-0.4478 0.5596,-0.8208 -0.0745,-0.3731 -0.4477,-0.6716 -0.8207,-0.597 -0.1866,0.0373 -0.6342,0.2985 -1.0074,0.5596 -0.3731,0.2612 -0.6715,0.5223 -0.6715,0.5223 0,0 0.4104,0.0746 0.8207,0.1866 0.4478,0.0746 0.9327,0.1866 1.1193,0.1493zm-0.1866 -1.8655c0,0 0.5223,-0.3731 1.0074,-0.6716l0.8581 1.082c-0.2238,0 -0.7089,-0.1119 -1.1193,-0.2238 -0.373,-0.112 -0.7462,-0.1866 -0.7462,-0.1866zm0.6343 2.9474c-0.1119,0.3358 -1.0073,1.3431 -1.1192,1.4923l0 0c-0.0746,-0.2238 -0.2985,-1.5296 -0.2238,-1.9027 0.1119,-0.3731 0.485,-0.597 0.8954,-0.4477 0.373,0.1119 0.5595,0.5223 0.4476,0.8581zm1.6789 -1.3804c-0.0745,0.1865 -0.373,0.5223 -0.6715,0.8581 -0.2985,0.2985 -0.5596,0.5596 -0.5596,0.5596 0,0 -0.0746,-0.373 -0.112,-0.8208 -0.0373,-0.4477 -0.0745,-0.9327 0,-1.1192 0.112,-0.3731 0.5597,-0.5597 0.8955,-0.4104 0.4103,0.1492 0.5969,0.5596 0.4476,0.9327zm-3.7682 1.8281c-0.0373,0 -0.0373,0 -0.0745,0l-0.9701 -0.97c0.2612,-0.2238 0.5597,-0.3731 0.7089,-0.4104 0.3731,-0.1119 0.7835,0.1492 0.8581,0.5223 0.1119,0.4104 -0.1493,0.7462 -0.5224,0.8581z"/>
     </g>
     <g>
      <path id="_337009664" class="fil8" d="M24.8242 125.406c0.373,-0.1493 0.5596,-0.5223 0.4477,-0.8955 -0.1119,-0.373 -0.5223,-0.5969 -0.8954,-0.485 -0.3731,0.1119 -1.5297,1.343 -1.5297,1.343 0,0 0.4104,0.0374 0.8581,0.0746 0.4477,0.0374 0.9327,0.0374 1.1193,-0.0371zm-0.4104 -1.8282c0,0 0.4851,-0.4477 0.9327,-0.7834l0.97 0.97c-0.2238,0.0373 -0.7089,-0.0373 -1.1193,-0.0746 -0.4477,-0.0373 -0.7834,-0.112 -0.7834,-0.112zm1.0073 2.8728c-0.0374,0.1865 -0.2239,0.5223 -0.4478,0.8581 -0.1865,0.3358 -0.4104,0.6715 -0.4477,0.7462l-0.0373 0c-0.0746,-0.1866 -0.5596,-1.4923 -0.4851,-1.8655 0.0746,-0.373 0.4478,-0.6342 0.8208,-0.5596 0.4106,0.0747 0.6717,0.4477 0.5971,0.8208zm1.455 -1.6043c-0.0373,0.1866 -0.2984,0.5597 -0.5596,0.8955 -0.2611,0.3358 -0.485,0.6342 -0.485,0.6342 0,0 -0.112,-0.3731 -0.2239,-0.8208 -0.1119,-0.4477 -0.1865,-0.8954 -0.1119,-1.1193 0.0746,-0.373 0.4851,-0.5969 0.8581,-0.5223 0.3731,0.1493 0.5969,0.5597 0.5223,0.9327zm-3.4697 2.3131c0,0 -0.0373,0 -0.0745,0l-1.1193 -0.8207c0.2612,-0.2612 0.4851,-0.4478 0.6342,-0.5223 0.3731,-0.1493 0.7835,0.0373 0.9327,0.4104 0.1492,0.373 0,0.7834 -0.3731,0.9326z"/>
     </g>
     <g>
      <path id="_337010024" class="fil8" d="M22.1379 129.025c0.3359,-0.1866 0.4851,-0.597 0.2985,-0.9327 -0.1866,-0.373 -0.5969,-0.5223 -0.97,-0.3358 -0.1866,0.0746 -0.5223,0.4851 -0.8208,0.8208 -0.2611,0.373 -0.485,0.7089 -0.485,0.7089 0,0 0.4103,-0.0374 0.8581,-0.0746 0.4477,-0.0373 0.9327,-0.112 1.1192,-0.1866zm-0.7088 -1.7535c0,0 0.1119,-0.1119 0.2611,-0.2984 0.1493,-0.1866 0.3731,-0.4104 0.5596,-0.597l1.1193 0.8208c-0.2238,0.0746 -0.7089,0.0746 -1.1193,0.0746 -0.4476,0 -0.8207,0 -0.8207,0zm1.455 2.6862c0,0.3731 -0.5596,1.567 -0.6342,1.7162l-0.0373 0c-0.1119,-0.1865 -0.7462,-1.3804 -0.7462,-1.7534 0,-0.4104 0.2985,-0.7089 0.7089,-0.6716 0.4104,-0.0001 0.7088,0.3357 0.7088,0.7088zm1.1939 -1.7908c-0.0373,0.1866 -0.2238,0.597 -0.4104,0.97 -0.1866,0.3731 -0.3731,0.7089 -0.3731,0.7089 0,0 -0.1865,-0.3358 -0.3358,-0.7835 -0.1492,-0.4103 -0.2985,-0.8954 -0.2985,-1.0819 0,-0.4104 0.3731,-0.6715 0.7835,-0.6342 0.3731,0.0745 0.6716,0.4476 0.6343,0.8207z"/>
     </g>
    </g>
    <path id="_337008872" class="fil7" d="M84.8538 89.8508c-0.8954,-1.1193 -1.9773,-2.1639 -3.1712,-3.0967l0 -7.3498c0,-7.126 -0.8581,-13.5057 -5.7828,-17.7589 -3.1339,-4.5516 -9.0287,-4.8128 -19.0275,-7.6856 -0.2612,-0.0746 -0.5969,-0.1119 -0.9326,-0.1119 0.1119,6.9021 0.1492,21.2286 0.1119,31.4139 7.872,0.0373 17.3112,1.5297 27.4219,6.3424 0.485,0.2238 1.0819,0.1119 1.4177,-0.3359 0.3357,-0.4103 0.2983,-1.0071 -0.0374,-1.4175z"/>
   </g>
  </g>
  <g id="_336630280">
   <g>
    <polygon id="_336870712" class="fil9" points="266.824,10.356 217.271,10.356 266.824,59.9096 "/>
   </g>
   <g>
    <g>
     <rect id="_337565288" class="fil10" x="244.38" y="25.1872" width="4.32548" height="4.32548"/>
    </g>
    <g>
     <rect id="_337566176" class="fil10" x="257.57" y="25.1872" width="4.32479" height="4.32548"/>
    </g>
    <g>
     <path id="_337566368" class="fil10" d="M261.682 15.3614l-17.088 0 -0.2132 7.537 1.1333 0.196c0.211,-2.2205 0.7937,-3.869 1.7482,-4.9441 1.0048,-1.1254 2.3885,-1.7131 4.1669,-1.7634l0 15.766c0,1.378 -0.1924,2.2715 -0.5943,2.6849 -0.3416,0.3516 -0.9193,0.5684 -1.7332,0.6473 -0.2411,0.0201 -0.653,0.0302 -1.2358,0.0302l0 1.2064 10.5449 0 0 -1.2064c-0.5828,0 -0.9947,-0.0101 -1.2366,-0.0302 -0.8138,-0.0789 -1.3916,-0.2957 -1.7332,-0.6473 -0.4019,-0.4134 -0.5964,-1.3069 -0.5964,-2.6849l0 -15.766c1.7792,0.0503 3.1643,0.638 4.169,1.7634 0.9546,1.0751 1.538,2.7236 1.749,4.9441l1.1332 -0.196 -0.2138 -7.537z"/>
    </g>
   </g>
  </g>
 </g>
</svg>
